# xmcd CD database file
#
# Track frame offsets:
#	150
#	12861
#	27116
#	40289
#	52678
#	65068
#	92878
#	119304
#	137235
#	152133
#	165250
#	188439
#	208642
#	239794
#	272031
#
# Disc length: 4090 seconds
#
# Revision: 0
# Processed by: cddbd v1.5.2PL0 Copyright (c) Steve Scherf et al.
# Submitted via: CDex 1.51
#
DISCID=c80ff80f
DTITLE=Diverse - Base and Drums - The Jazz Series
DYEAR=2008
DGENRE=Jazz
TTITLE0=Cozy Cole with Cab Calloway and his Orchestra - Crescendo in Drums
TTITLE1=Lionel Hampton and his Orchestra - Hampton Stomp
TTITLE2=Dave Though with Bud Freeman and his Famous Orchestra - 47th And State
TTITLE3=Dave Though with Bud Freeman and his Orchestra - Inside on the Southside
TTITLE4=Milt Hinton with Cab Calloway and his Orchestra - Pluckin´the Bass
TTITLE5=Milt Hinton with Tony Parenti´s All Stars - Maryland my Maryland
TTITLE6=Jo Jones - Shoe Shine Boy
TTITLE7=Jo Jones - Caravan
TTITLE8=Jimmy Blanton with Duke Ellington and his Famous Orchestra - Jack the Bear
TTITLE9=Slam Stewart Quartet - Play Fiddle, Play
TTITLE10=Oscar Pettiford Sextet - Stardust
TTITLE11=Oscar Pettiford with Clark Terry - Slow Boat
TTITLE12=Red Mitchell with Jimmy Raney Quartet - You go to my Head
TTITLE13=Sidney Catlett with Louis Armstrong and the All Stars - Steak Face
TTITLE14=Gene Krupa - Gene´s Blues
EXTD=YEAR: 2008
EXTT0=
EXTT1=
EXTT2=
EXTT3=
EXTT4=
EXTT5=
EXTT6=
EXTT7=
EXTT8=
EXTT9=
EXTT10=
EXTT11=
EXTT12=
EXTT13=
EXTT14=
PLAYORDER=
